<svg xmlns="http://www.w3.org/2000/svg" viewBox="0 0 793 1122" preserveAspectRatio="xMidYMid slice">
  <defs>
    <linearGradient id="bg" x1="0" y1="0" x2="1" y2="1"><stop stop-color="#072c24"/><stop offset=".58" stop-color="#0b5638"/><stop offset="1" stop-color="#08253a"/></linearGradient>
    <radialGradient id="glow" cx="82%" cy="18%" r="80%"><stop stop-color="#a8ef25" stop-opacity=".92"/><stop offset=".46" stop-color="#4fae29" stop-opacity=".34"/><stop offset="1" stop-color="#082b25" stop-opacity="0"/></radialGradient>
    <pattern id="grid" width="38" height="38" patternUnits="userSpaceOnUse"><path d="M38 0H0V38" fill="none" stroke="#fff" stroke-opacity=".07" stroke-width="1"/></pattern>
  </defs>
  <rect width="793" height="1122" fill="url(#bg)"/>
  <rect width="793" height="1122" fill="url(#glow)"/>
  <rect width="793" height="1122" fill="url(#grid)"/>
  <path d="M-100 930 C170 720 340 1020 510 810 S850 640 920 500 V1200 H-100Z" fill="#a8ef25" opacity=".16"/>
  <g transform="translate(-285 130) scale(.93)"><g opacity=".38" fill="none" stroke="#fff" stroke-width="3"><path d="M560 126V194M526 160H594M536 136l48 48M584 136l-48 48"/><path d="M760 81V149M726 115H794M736 91l48 48M784 91l-48 48"/><path d="M925 211V279M891 245H959M901 221l48 48M949 221l-48 48"/><path d="M650 336V404M616 370H684M626 346l48 48M674 346l-48 48"/><path d="M860 436V504M826 470H894M836 446l48 48M884 446l-48 48"/><circle cx="760" cy="290" r="185" stroke="#a8ef25" stroke-width="10"/><circle cx="760" cy="290" r="110"/></g></g>
  <path d="M0 720L793 470V1122H0Z" fill="#021b22" opacity=".48"/>
  <path d="M0 775L793 520" stroke="#a8ef25" stroke-opacity=".65" stroke-width="4"/>
</svg>